<svg width="229" height="163" viewBox="0 0 411 293" fill="none" xmlns="http://www.w3.org/2000/svg">
<path d="M10 232.9V60.1C10 32.43 32.43 10 60.1 10H350.23C377.9 10 400.33 32.43 400.33 60.1V232.9C400.33 260.57 377.9 283 350.23 283H60.1C32.43 283 10 260.57 10 232.9Z" fill="#EFF1F8"/>
<path d="M350.23 293H60.1C26.96 293 0 266.04 0 232.9V60.1C0 26.96 26.96 0 60.1 0H350.23C383.37 0 410.33 26.96 410.33 60.1V232.9C410.32 266.04 383.36 293 350.23 293ZM60.1 20C37.99 20 20 37.99 20 60.1V232.9C20 255.01 37.99 273 60.1 273H350.23C372.34 273 390.33 255.01 390.33 232.9V60.1C390.33 37.99 372.34 20 350.23 20H60.1Z" fill="#D0D2E0"/>
</svg>
