<svg width="90" height="139" viewBox="0 0 164 255" fill="none" xmlns="http://www.w3.org/2000/svg">
<path d="M131.46 193H54.8699C37.1099 193 22.6699 178.55 22.6699 160.8V32.2C22.6699 14.44 37.1199 0 54.8699 0H131.46C149.22 0 163.66 14.45 163.66 32.2V160.8C163.66 178.55 149.22 193 131.46 193Z" fill="white"/>
<path d="M131.46 193H54.8699C37.1099 193 22.6699 178.55 22.6699 160.8V32.2C22.6699 14.44 37.1199 0 54.8699 0H131.46C149.22 0 163.66 14.45 163.66 32.2V160.8C163.66 178.55 149.22 193 131.46 193ZM54.8699 20C48.1399 20 42.6699 25.47 42.6699 32.2V160.8C42.6699 167.53 48.1399 173 54.8699 173H131.46C138.19 173 143.66 167.53 143.66 160.8V32.2C143.66 25.47 138.19 20 131.46 20H54.8699Z" fill="#426BD4"/>
<path d="M85.2702 254.3L84.2702 153.47V122.21C84.2702 115.88 79.1402 110.75 72.8102 110.75C67.0602 110.75 62.2102 115.01 61.4502 120.7L56.7702 156L22.7702 134V85L3.92019 124.06C0.600187 131.11 -0.0198108 139.13 2.18019 146.6L33.7702 254L85.2702 254.3Z" fill="#D0D2E0"/>
</svg>
