<svg width="229" height="245" viewBox="0 0 229 245" fill="none" xmlns="http://www.w3.org/2000/svg">
<g clip-path="url(#clip0)">
<path d="M5.58105 130.186V33.5946C5.58105 18.1276 18.0993 5.58978 33.5419 5.58978H195.464C210.906 5.58978 223.425 18.1276 223.425 33.5946V130.186C223.425 145.653 210.906 158.191 195.464 158.191H33.5419C18.0993 158.191 5.58105 145.653 5.58105 130.186Z" fill="#EFF1F8"/>
<path d="M195.464 163.781H33.5419C15.0464 163.781 0 148.71 0 130.186V33.5946C0 15.07 15.0464 0 33.5419 0H195.464C213.959 0 229.006 15.07 229.006 33.5946V130.186C229 148.71 213.954 163.781 195.464 163.781ZM33.5419 11.1796C21.2023 11.1796 11.162 21.2356 11.162 33.5946V130.186C11.162 142.545 21.2023 152.601 33.5419 152.601H195.464C207.803 152.601 217.844 142.545 217.844 130.186V33.5946C217.844 21.2356 207.803 11.1796 195.464 11.1796H33.5419Z" fill="#D0D2E0"/>
<path d="M135.875 210.735H93.1303C83.2184 210.735 75.1594 202.657 75.1594 192.736V120.851C75.1594 110.924 83.224 102.852 93.1303 102.852H135.875C145.787 102.852 153.846 110.929 153.846 120.851V192.736C153.846 202.657 145.787 210.735 135.875 210.735Z" fill="white"/>
<path d="M135.875 210.735H93.1303C83.2184 210.735 75.1594 202.657 75.1594 192.736V120.851C75.1594 110.924 83.224 102.852 93.1303 102.852H135.875C145.787 102.852 153.846 110.929 153.846 120.851V192.736C153.846 202.657 145.787 210.735 135.875 210.735ZM93.1303 114.031C89.3743 114.031 86.3214 117.089 86.3214 120.851V192.736C86.3214 196.497 89.3743 199.555 93.1303 199.555H135.875C139.631 199.555 142.684 196.497 142.684 192.736V120.851C142.684 117.089 139.631 114.031 135.875 114.031H93.1303Z" fill="#426BD4"/>
<path d="M110.097 245L109.538 188.638V171.165C109.538 167.626 106.675 164.759 103.143 164.759C99.9335 164.759 97.2267 167.14 96.8025 170.321L94.1906 190.052L75.2152 177.755V150.365L64.695 172.199C62.8421 176.14 62.4961 180.623 63.7239 184.798L81.3543 244.832L110.097 245Z" fill="#D0D2E0"/>
</g>
<defs>
<clipPath id="clip0">
<rect width="229" height="245" fill="white"/>
</clipPath>
</defs>
</svg>
