<svg width="24" height="24" viewBox="0 0 24 24" fill="none" xmlns="http://www.w3.org/2000/svg">
<path d="M11.5 0C5.14933 0 0 5.14933 0 11.5C0 17.8507 5.14933 23 11.5 23C17.8507 23 23 17.8507 23 11.5C23 5.14933 17.8507 0 11.5 0ZM11.5 21.0491C6.22746 21.0491 1.95089 16.7725 1.95089 11.5C1.95089 6.22746 6.22746 1.95089 11.5 1.95089C16.7725 1.95089 21.0491 6.22746 21.0491 11.5C21.0491 16.7725 16.7725 21.0491 11.5 21.0491Z" fill="#426BD4"/>
<path d="M14.6411 6.06673C13.7971 5.37742 12.683 5 11.5014 5C10.3198 5 9.20569 5.38004 8.36167 6.06673C7.4839 6.78226 7 7.74415 7 8.77419V8.97339C7 9.08871 7.10128 9.18306 7.22507 9.18306H8.57549C8.69928 9.18306 8.80056 9.08871 8.80056 8.97339V8.77419C8.80056 7.61835 10.0131 6.67742 11.5014 6.67742C12.9897 6.67742 14.2022 7.61835 14.2022 8.77419C14.2022 9.58931 13.5833 10.3363 12.6239 10.6796C12.0275 10.8919 11.5211 11.2641 11.1582 11.7516C10.7896 12.2496 10.5983 12.8472 10.5983 13.4526V14.0161C10.5983 14.1315 10.6996 14.2258 10.8234 14.2258H12.1738C12.2976 14.2258 12.3989 14.1315 12.3989 14.0161V13.4212C12.4003 13.1667 12.484 12.9186 12.6391 12.7091C12.7942 12.4997 13.0134 12.3386 13.2682 12.247C14.9281 11.652 16 10.2891 16 8.77419C16.0028 7.74415 15.5189 6.78226 14.6411 6.06673ZM10.3761 16.9516C10.3761 17.2297 10.4946 17.4963 10.7057 17.6929C10.9167 17.8895 11.2029 18 11.5014 18C11.7999 18 12.0861 17.8895 12.2971 17.6929C12.5082 17.4963 12.6268 17.2297 12.6268 16.9516C12.6268 16.6736 12.5082 16.4069 12.2971 16.2103C12.0861 16.0137 11.7999 15.9032 11.5014 15.9032C11.2029 15.9032 10.9167 16.0137 10.7057 16.2103C10.4946 16.4069 10.3761 16.6736 10.3761 16.9516Z" fill="#426BD4"/>
</svg>
