<svg width="100" height="100" viewBox="0 0 100 100" fill="none" xmlns="http://www.w3.org/2000/svg">
<path d="M85.3553 85.3553C94.7322 75.9785 100 63.2608 100 50C100 36.7392 94.7322 24.0215 85.3553 14.6447C75.9785 5.26784 63.2608 0 50 0C36.7392 0 24.0215 5.26784 14.6447 14.6447C5.26784 24.0215 0 36.7392 0 50C0 63.2608 5.26784 75.9785 14.6447 85.3553C24.0215 94.7322 36.7392 100 50 100C63.2608 100 75.9785 94.7322 85.3553 85.3553Z" fill="#FF4D77"/>
<g clip-path="url(#clip0)">
<path d="M66.2598 70.9997C65.0464 70.9997 63.833 70.5352 62.9087 69.6109L31.3885 38.0907C29.5352 36.2374 29.5352 33.2371 31.3885 31.3885C33.2418 29.5352 36.2421 29.5352 38.0907 31.3885L69.6109 62.9087C71.4642 64.762 71.4642 67.7624 69.6109 69.6109C68.6867 70.5352 67.4732 70.9997 66.2598 70.9997Z" fill="white"/>
<path d="M34.7396 70.9997C33.5262 70.9997 32.3128 70.5352 31.3885 69.6109C29.5352 67.7576 29.5352 64.7573 31.3885 62.9087L62.9087 31.3885C64.762 29.5352 67.7624 29.5352 69.6109 31.3885C71.4642 33.2418 71.4642 36.2421 69.6109 38.0907L38.0907 69.6109C37.1664 70.5352 35.953 70.9997 34.7396 70.9997Z" fill="white"/>
</g>
<defs>
<clipPath id="clip0">
<rect width="41" height="41" fill="white" transform="translate(30 30)"/>
</clipPath>
</defs>
</svg>
