<svg width="428" height="38" viewBox="0 0 428 38" fill="none" xmlns="http://www.w3.org/2000/svg">
<g clip-path="url(#clip0)">
<path d="M22.1301 11.8625C21.707 11.1849 21.1796 10.587 20.545 10.075C19.9103 9.563 19.1929 9.16136 18.3958 8.87622C17.5955 8.59109 16.7585 8.44699 15.8847 8.44699C14.2843 8.44699 12.9261 8.75665 11.8101 9.37598C10.6941 9.9953 9.78961 10.8231 9.09364 11.8655C8.39766 12.908 7.89485 14.0914 7.57599 15.419C7.26019 16.7465 7.10076 18.1201 7.10076 19.5366C7.10076 20.8948 7.26019 22.2131 7.57599 23.4978C7.89178 24.7794 8.39766 25.9352 9.09364 26.9593C9.78654 27.9863 10.691 28.808 11.8101 29.4274C12.9261 30.0467 14.2843 30.3563 15.8847 30.3563C18.0585 30.3563 19.754 29.6941 20.9773 28.3635C22.2006 27.0359 22.9456 25.2852 23.2185 23.1145H30.0985C29.9176 25.135 29.4485 26.9623 28.6943 28.5903C27.9401 30.2184 26.9437 31.6072 25.7081 32.7539C24.4694 33.9006 23.0223 34.7744 21.3636 35.3784C19.7049 35.9824 17.8776 36.2828 15.8878 36.2828C13.4136 36.2828 11.1877 35.8536 9.21321 34.9921C7.23566 34.1336 5.57085 32.9471 4.21263 31.4386C2.85134 29.9271 1.80892 28.155 1.08535 26.1192C0.361783 24.0834 0 21.8882 0 19.5335C0 17.1206 0.361783 14.8794 1.08535 12.8129C1.80892 10.7465 2.85134 8.94368 4.20956 7.40456C5.56778 5.86545 7.2326 4.66053 9.21014 3.78367C11.1846 2.90987 13.4105 2.47144 15.8847 2.47144C17.6661 2.47144 19.3462 2.72898 20.9313 3.24099C22.5164 3.75301 23.9329 4.5011 25.1869 5.48221C26.4378 6.46331 27.471 7.67744 28.2865 9.12457C29.1021 10.5717 29.6141 12.2335 29.8257 14.1037H22.9456C22.8261 13.2881 22.5532 12.5431 22.1301 11.8625Z" fill="#426BD4"/>
<path d="M34.63 12.8129C35.3536 10.7465 36.396 8.94368 37.7542 7.40456C39.1125 5.86545 40.7773 4.66053 42.7548 3.78367C44.7293 2.90987 46.9552 2.47144 49.4294 2.47144C51.9343 2.47144 54.1663 2.90987 56.1285 3.78367C58.0908 4.66053 59.7494 5.86545 61.1077 7.40456C62.4659 8.94368 63.5052 10.7465 64.2319 12.8129C64.9554 14.8794 65.3172 17.1206 65.3172 19.5335C65.3172 21.8882 64.9554 24.0834 64.2319 26.1192C63.5083 28.155 62.4659 29.9271 61.1077 31.4356C59.7494 32.944 58.0908 34.1275 56.1285 34.989C54.1663 35.8475 51.9343 36.2798 49.4294 36.2798C46.9552 36.2798 44.7293 35.8505 42.7548 34.989C40.7773 34.1305 39.1125 32.944 37.7542 31.4356C36.396 29.9271 35.3567 28.155 34.63 26.1192C33.9034 24.0834 33.5447 21.8882 33.5447 19.5335C33.5447 17.1206 33.9065 14.8794 34.63 12.8129ZM41.1268 23.4947C41.4426 24.7763 41.9485 25.9322 42.6444 26.9562C43.3374 27.9833 44.2418 28.805 45.3609 29.4243C46.4769 30.0436 47.8351 30.3533 49.4355 30.3533C51.0329 30.3533 52.3911 30.0436 53.5102 29.4243C54.6262 28.805 55.5307 27.9833 56.2266 26.9562C56.9196 25.9322 57.4254 24.7763 57.7412 23.4947C58.057 22.2131 58.2165 20.8917 58.2165 19.5335C58.2165 18.117 58.057 16.7435 57.7412 15.4159C57.4254 14.0884 56.9196 12.9049 56.2266 11.8625C55.5307 10.82 54.6262 9.99223 53.5102 9.37291C52.3942 8.75359 51.036 8.44392 49.4355 8.44392C47.8351 8.44392 46.4769 8.75359 45.3609 9.37291C44.2449 9.99223 43.3404 10.82 42.6444 11.8625C41.9485 12.9049 41.4457 14.0884 41.1268 15.4159C40.811 16.7435 40.6516 18.117 40.6516 19.5335C40.6516 20.8917 40.8079 22.2131 41.1268 23.4947Z" fill="#426BD4"/>
<path d="M90.9945 11.8626C90.5714 11.185 90.044 10.5871 89.4094 10.0751C88.7747 9.56311 88.0573 9.16147 87.2601 8.87633C86.4599 8.5912 85.6229 8.4471 84.7491 8.4471C83.1487 8.4471 81.7905 8.75676 80.6744 9.37608C79.5584 9.99541 78.654 10.8232 77.958 11.8656C77.262 12.9081 76.7592 14.0915 76.4404 15.4191C76.1246 16.7467 75.9651 18.1202 75.9651 19.5367C75.9651 20.8949 76.1246 22.2133 76.4404 23.4979C76.7561 24.7795 77.262 25.9353 77.958 26.9594C78.6509 27.9865 79.5554 28.8081 80.6744 29.4275C81.7905 30.0468 83.1487 30.3564 84.7491 30.3564C86.9229 30.3564 88.6183 29.6942 89.8417 28.3636C91.065 27.036 91.81 25.2853 92.0829 23.1146H98.9629C98.782 25.1351 98.3129 26.9624 97.5587 28.5905C96.8045 30.2185 95.808 31.6074 94.5724 32.754C93.3338 33.9007 91.8867 34.7745 90.228 35.3785C88.5693 35.9825 86.742 36.2829 84.7522 36.2829C82.2779 36.2829 80.0521 35.8537 78.0776 34.9922C76.1 34.1337 74.4352 32.9472 73.077 31.4387C71.7188 29.9303 70.6794 28.1582 69.9528 26.1224C69.2262 24.0866 68.8674 21.8913 68.8674 19.5367C68.8674 17.1238 69.2292 14.8825 69.9528 12.8161C70.6764 10.7496 71.7188 8.94685 73.077 7.40774C74.4352 5.86863 76.1 4.6637 78.0776 3.78684C80.0521 2.91304 82.2779 2.47461 84.7522 2.47461C86.5335 2.47461 88.2136 2.73215 89.7987 3.24417C91.3838 3.75618 92.8003 4.50427 94.0543 5.48538C95.3052 6.46649 96.3384 7.68061 97.154 9.12774C97.9695 10.5749 98.4815 12.2366 98.6931 14.1069H91.8131C91.6874 13.2882 91.4176 12.5432 90.9945 11.8626Z" fill="#426BD4"/>
<path d="M103.495 12.8129C104.218 10.7465 105.261 8.94368 106.619 7.40456C107.977 5.86545 109.642 4.66053 111.619 3.78367C113.594 2.90987 115.82 2.47144 118.294 2.47144C120.799 2.47144 123.031 2.90987 124.993 3.78367C126.955 4.66053 128.614 5.86545 129.972 7.40456C131.33 8.94368 132.37 10.7465 133.096 12.8129C133.82 14.8794 134.182 17.1206 134.182 19.5335C134.182 21.8882 133.82 24.0834 133.096 26.1192C132.373 28.155 131.33 29.9271 129.972 31.4356C128.614 32.944 126.955 34.1275 124.993 34.989C123.031 35.8475 120.799 36.2798 118.294 36.2798C115.82 36.2798 113.594 35.8505 111.619 34.989C109.642 34.1305 107.977 32.944 106.619 31.4356C105.261 29.9271 104.221 28.155 103.495 26.1192C102.768 24.0834 102.409 21.8882 102.409 19.5335C102.409 17.1206 102.771 14.8794 103.495 12.8129ZM109.988 23.4947C110.304 24.7763 110.81 25.9322 111.506 26.9562C112.199 27.9833 113.103 28.805 114.222 29.4243C115.338 30.0436 116.697 30.3533 118.297 30.3533C119.894 30.3533 121.253 30.0436 122.372 29.4243C123.488 28.805 124.392 27.9833 125.088 26.9562C125.781 25.9322 126.287 24.7763 126.603 23.4947C126.918 22.2131 127.078 20.8917 127.078 19.5335C127.078 18.117 126.918 16.7435 126.603 15.4159C126.287 14.0884 125.781 12.9049 125.088 11.8625C124.392 10.82 123.488 9.99223 122.372 9.37291C121.256 8.75359 119.897 8.44392 118.297 8.44392C116.697 8.44392 115.338 8.75359 114.222 9.37291C113.106 9.99223 112.202 10.82 111.506 11.8625C110.81 12.9049 110.307 14.0884 109.988 15.4159C109.672 16.7435 109.513 18.117 109.513 19.5335C109.513 20.8917 109.672 22.2131 109.988 23.4947Z" fill="#426BD4"/>
<path d="M153.997 3.24097L166.08 35.5562H158.703L156.26 28.3604H144.177L141.641 35.5562H134.491L146.712 3.24097H153.997V3.24097ZM154.405 23.0655L150.33 11.2063H150.238L146.032 23.0655H154.405Z" fill="#426BD4"/>
<path d="M174.355 25.8558L181.416 25.7362V23.7587H178.795V24.4853H175.002V12.1356H181.419V10.6026H173.512V7.33431H181.419V5.9209C179.402 6.00062 177.424 6.04048 175.729 6.04048C175.486 6.04048 175.447 5.96076 175.367 5.75841C175.085 4.74971 173.552 2.65259 173.552 2.65259C174.683 2.73231 176.133 2.77216 177.709 2.77216C182.348 2.77216 188.078 2.36746 189.774 1.60097C189.774 1.60097 191.469 3.82072 191.914 4.74971C191.994 4.9122 192.036 5.03178 192.036 5.15441C192.036 5.35677 191.874 5.43648 191.675 5.43648C191.393 5.43648 191.028 5.31691 190.626 4.99192C189.295 5.27399 187.438 5.47634 185.42 5.63884V7.33431H193.208V9.35171H196.881C196.881 6.48811 196.881 2.41038 196.718 1.20239C196.718 1.20239 200.348 1.28211 201.802 1.48446C202.366 1.56418 202.648 1.76653 202.648 1.96888C202.648 2.21109 202.243 2.49316 201.516 2.6158C201.516 4.10892 201.516 7.09517 201.477 9.35478H209.062C209.022 15.3273 209.224 27.027 207.891 32.0306C206.882 35.7833 204.3 37.114 201.032 37.114C199.015 37.114 198.935 36.9515 198.892 36.7093C198.729 35.6607 197.561 33.4011 196.914 32.2299C194.575 36.2248 191.708 38 191.466 38C191.426 38 191.344 38 191.304 37.9602C190.335 37.2734 186.18 36.1451 186.18 36.1451C187.793 35.3388 189.167 34.3301 190.338 33.1987C186.788 33.9254 180.573 34.9739 175.45 35.4584C175.45 35.4982 175.45 35.5381 175.45 35.5381C175.45 36.1022 175.247 36.5069 174.965 36.5069C174.803 36.5069 174.603 36.3444 174.441 35.9826C173.877 34.7317 173.15 31.7056 173.15 31.7056C175.814 31.6259 178.718 31.3837 181.422 31.1016V28.9217L174.361 29.0014V25.8558H174.355ZM181.496 16.6978V14.9195H178.792V16.6947H181.496V16.6978ZM181.496 21.0545V19.1168H178.792V21.0545H181.496ZM188.195 16.6978V14.9195H185.331V16.6947H188.195V16.6978ZM188.195 21.0545V19.1168H185.331V21.0545H188.195ZM185.411 30.6172C188.639 30.1726 191.141 29.7281 191.948 29.5288C191.948 29.5288 191.745 30.7797 191.626 31.8283C196.105 26.4199 196.629 18.9574 196.792 13.5092H192.877V10.6026H185.411V12.1356H191.908V24.3626H188.195V23.7587H185.411V25.6963L191.987 25.5737L192.027 28.7623L185.411 28.842V30.6172V30.6172ZM201.348 13.5092C201.106 18.755 200.419 25.9355 197.233 31.7056C198.365 32.0275 199.655 32.4721 200.784 32.4721C204.132 32.4721 204.334 28.7194 204.536 13.5092H201.348V13.5092Z" fill="#426BD4"/>
<path d="M219.388 17.3016C217.775 19.6838 216.402 21.4161 216.239 21.4161C216.199 21.4161 216.116 21.3763 216.037 21.2935C214.826 20.2051 211.8 18.994 211.8 18.994C217.248 14.2326 221.2 5.43634 222.411 0.996826C227.05 2.20788 227.979 2.6923 227.979 3.13687C227.979 3.41893 227.574 3.66115 227.01 3.66115C226.887 3.66115 226.768 3.62129 226.648 3.62129C225.921 5.55897 224.75 8.10065 223.3 10.8447C223.824 10.8447 224.229 10.8845 224.309 10.8845C224.956 10.9643 225.238 11.1666 225.238 11.369C225.238 11.6909 224.753 12.0159 223.987 12.2581L223.947 17.6235C228.144 12.9019 230.766 6.08325 231.897 1.03975C231.897 1.03975 235.527 1.72652 236.94 2.17109C237.385 2.33358 237.627 2.53287 237.627 2.73523C237.627 3.05715 237.223 3.29936 236.499 3.29936C236.419 3.29936 236.376 3.29936 236.297 3.29936C236.015 4.06585 235.49 5.59883 234.803 7.4568L249.854 7.41695V11.7737H237.827V15.8085H248.318V20.2081H237.827V24.4453H248.318V28.802H237.827V37.8405H233.307L233.387 11.7737H233.025C230.039 18.5127 227.739 20.5699 227.7 20.5699C227.66 20.5699 227.62 20.5699 227.537 20.5301C226.731 19.9659 224.995 19.319 223.947 18.9572L223.784 37.9232H219.146L219.388 17.3016Z" fill="#426BD4"/>
<path d="M256.833 14.8397H271.804C271.804 13.2668 271.764 11.2494 271.764 10.3204V10.2806C268.011 10.6424 264.5 10.765 261.677 10.8048C261.435 10.8048 261.312 10.8048 261.232 10.6025C260.628 9.18909 258.083 5.8012 258.083 5.8012C259.457 5.88092 260.99 5.92384 262.523 5.92384C269.464 5.92384 277.736 5.11749 282.859 3.25952C282.859 3.25952 285.119 5.9637 286.207 7.73889C286.37 7.9811 286.45 8.18345 286.45 8.34288C286.45 8.62495 286.247 8.74759 285.965 8.74759C285.643 8.74759 285.159 8.54524 284.674 8.18345C282.173 8.78745 279.551 9.27187 276.967 9.63672C276.967 11.3721 276.967 13.3496 277.007 14.8427H289.877V19.8065H276.967C276.442 27.7565 272.126 33.726 262.722 36.3504C262.643 36.3903 262.56 36.3903 262.52 36.3903C262.357 36.3903 262.278 36.3106 262.158 36.1879C260.745 34.4526 257.277 31.9508 257.277 31.9508C268.535 30.1357 271.157 25.0922 271.681 19.8065H256.833V14.8397V14.8397Z" fill="#426BD4"/>
<path d="M294.725 30.3748H305.618V19.5213H296.822V15.324H319.056V19.5213H310.22V30.3748H321.156V34.7315H294.728V30.3748H294.725Z" fill="#426BD4"/>
<path d="M331.97 14.3552C333.463 16.4952 335.238 19.9628 336.045 22.8295L332.212 24.5648C332.132 24.6047 332.05 24.6047 331.97 24.6047C331.847 24.6047 331.768 24.525 331.688 24.2429C330.961 21.1769 329.468 18.3103 327.895 16.0506L331.97 14.3552ZM347.303 12.862C347.303 12.862 351.016 13.4262 352.426 13.8309C352.95 13.9934 353.153 14.1927 353.153 14.395C353.153 14.7169 352.708 15.0419 352.021 15.1615C350.044 27.3487 344.596 33.2783 335.438 37.4357C335.358 37.4756 335.275 37.4756 335.235 37.4756C335.113 37.4756 335.033 37.4357 334.993 37.356C334.064 36.1051 330.918 34.2073 330.514 33.965C341.048 30.8991 346.496 24.2429 347.303 12.862ZM339.678 12.4175C341.131 14.7568 342.584 18.1876 343.268 21.1739C339.313 22.7068 339.313 22.7068 339.193 22.7068C339.114 22.7467 339.071 22.7467 338.991 22.7467C338.871 22.7467 338.828 22.667 338.789 22.4248C338.224 19.2362 337.013 16.3327 335.52 13.7481L339.678 12.4175Z" fill="#426BD4"/>
<path d="M360.339 9.79606L371.355 9.7562C371.597 7.45673 371.677 4.95491 371.717 2.25073C371.717 2.25073 375.914 2.41323 377.447 2.65544C378.094 2.73515 378.376 2.97736 378.376 3.21958C378.376 3.50164 377.892 3.82357 377.125 4.02592C377.046 6.04332 376.883 7.94115 376.681 9.7562L388.34 9.71634C388.058 29.5286 385.918 35.7831 376.638 35.7831C373.572 35.7831 373.29 35.5011 373.207 35.1791C372.845 33.2415 370.705 29.4887 370.705 29.4887C372.44 29.8505 374.62 30.4576 376.555 30.4576C378.572 30.4576 380.387 29.8106 381.237 27.594C382.567 24.1631 382.892 18.2336 382.972 14.5207H375.951C373.894 25.0523 369.374 31.0248 362.715 36.1081C362.636 36.1878 362.553 36.2308 362.473 36.2308C362.393 36.2308 362.31 36.1909 362.191 36.0683C360.618 34.6549 357.025 32.9195 356.945 32.8797C365.337 28.0385 369.089 22.388 370.665 14.5606C367.357 14.5606 363.966 14.5606 360.336 14.6004V9.79606H360.339Z" fill="#426BD4"/>
<path d="M396.251 16.6975H427.563V22.0231H396.251V16.6975Z" fill="#426BD4"/>
</g>
<defs>
<clipPath id="clip0">
<rect width="428" height="38" fill="white"/>
</clipPath>
</defs>
</svg>
