<svg width="225" height="20" viewBox="0 0 225 20" fill="none" xmlns="http://www.w3.org/2000/svg">
<g clip-path="url(#clip0)">
<path d="M11.6338 6.24361C11.4114 5.88699 11.1342 5.57233 10.8005 5.30285C10.4669 5.03337 10.0897 4.82198 9.67067 4.67191C9.24999 4.52184 8.80998 4.44599 8.35062 4.44599C7.50927 4.44599 6.79525 4.60897 6.20857 4.93493C5.62188 5.26089 5.14641 5.69658 4.78053 6.24523C4.41466 6.79387 4.15033 7.41675 3.9827 8.11546C3.81669 8.81418 3.73288 9.5371 3.73288 10.2826C3.73288 10.9975 3.81669 11.6913 3.9827 12.3675C4.14872 13.042 4.41466 13.6503 4.78053 14.1893C5.14479 14.7299 5.62027 15.1623 6.20857 15.4883C6.79525 15.8142 7.50927 15.9772 8.35062 15.9772C9.49337 15.9772 10.3847 15.6287 11.0278 14.9283C11.6709 14.2296 12.0625 13.3082 12.206 12.1658H15.8228C15.7277 13.2292 15.4811 14.1909 15.0846 15.0478C14.6881 15.9046 14.1643 16.6356 13.5148 17.2391C12.8636 17.8426 12.1028 18.3025 11.2309 18.6204C10.3589 18.9383 9.39828 19.0964 8.35223 19.0964C7.05153 19.0964 5.88138 18.8705 4.84339 18.4171C3.8038 17.9653 2.9286 17.3408 2.21458 16.5469C1.49895 15.7513 0.950949 14.8186 0.570569 13.7471C0.19019 12.6757 0 11.5203 0 10.281C0 9.01105 0.19019 7.83146 0.570569 6.74385C0.950949 5.65624 1.49895 4.70741 2.21297 3.89735C2.92699 3.08729 3.80218 2.45312 4.84178 1.99161C5.87977 1.53172 7.04992 1.30096 8.35062 1.30096C9.28706 1.30096 10.1703 1.43651 11.0036 1.70599C11.8369 1.97548 12.5815 2.36921 13.2408 2.88558C13.8984 3.40195 14.4415 4.04096 14.8703 4.80261C15.299 5.56426 15.5682 6.43887 15.6794 7.4232H12.0625C11.9997 6.99397 11.8562 6.60185 11.6338 6.24361Z" fill="#426BD4"/>
<path d="M18.2051 6.74385C18.5855 5.65624 19.1335 4.70741 19.8475 3.89735C20.5615 3.08729 21.4367 2.45312 22.4763 1.99161C23.5143 1.53172 24.6844 1.30096 25.9851 1.30096C27.302 1.30096 28.4753 1.53172 29.5069 1.99161C30.5384 2.45312 31.4104 3.08729 32.1244 3.89735C32.8384 4.70741 33.3848 5.65624 33.7668 6.74385C34.1472 7.83146 34.3374 9.01105 34.3374 10.281C34.3374 11.5203 34.1472 12.6757 33.7668 13.7471C33.3864 14.8186 32.8384 15.7513 32.1244 16.5452C31.4104 17.3392 30.5384 17.962 29.5069 18.4155C28.4753 18.8673 27.302 19.0948 25.9851 19.0948C24.6844 19.0948 23.5143 18.8689 22.4763 18.4155C21.4367 17.9636 20.5615 17.3392 19.8475 16.5452C19.1335 15.7513 18.5871 14.8186 18.2051 13.7471C17.8231 12.6757 17.6345 11.5203 17.6345 10.281C17.6345 9.01105 17.8247 7.83146 18.2051 6.74385ZM21.6204 12.3659C21.7865 13.0404 22.0524 13.6487 22.4183 14.1877C22.7825 14.7283 23.258 15.1607 23.8463 15.4867C24.433 15.8126 25.147 15.9756 25.9884 15.9756C26.8281 15.9756 27.5421 15.8126 28.1304 15.4867C28.7171 15.1607 29.1926 14.7283 29.5585 14.1877C29.9227 13.6487 30.1887 13.0404 30.3547 12.3659C30.5207 11.6913 30.6045 10.9959 30.6045 10.281C30.6045 9.53549 30.5207 8.81257 30.3547 8.11385C30.1887 7.41513 29.9227 6.79226 29.5585 6.24361C29.1926 5.69497 28.7171 5.25928 28.1304 4.93332C27.5437 4.60736 26.8297 4.44438 25.9884 4.44438C25.147 4.44438 24.433 4.60736 23.8463 4.93332C23.2596 5.25928 22.7842 5.69497 22.4183 6.24361C22.0524 6.79226 21.7881 7.41513 21.6204 8.11385C21.4544 8.81257 21.3706 9.53549 21.3706 10.281C21.3706 10.9959 21.4528 11.6913 21.6204 12.3659Z" fill="#426BD4"/>
<path d="M47.8359 6.24359C47.6135 5.88697 47.3363 5.5723 47.0026 5.30282C46.669 5.03334 46.2918 4.82195 45.8728 4.67188C45.4521 4.52181 45.0121 4.44597 44.5527 4.44597C43.7114 4.44597 42.9974 4.60895 42.4107 4.93491C41.824 5.26087 41.3485 5.69656 40.9827 6.2452C40.6168 6.79385 40.3525 7.41672 40.1848 8.11544C40.0188 8.81415 39.935 9.53707 39.935 10.2826C39.935 10.9974 40.0188 11.6913 40.1848 12.3674C40.3508 13.0419 40.6168 13.6503 40.9827 14.1893C41.3469 14.7298 41.8224 15.1623 42.4107 15.4883C42.9974 15.8142 43.7114 15.9772 44.5527 15.9772C45.6955 15.9772 46.5868 15.6287 47.2299 14.9283C47.873 14.2296 48.2647 13.3082 48.4081 12.1657H52.0249C51.9298 13.2291 51.6832 14.1909 51.2868 15.0477C50.8903 15.9046 50.3664 16.6356 49.7169 17.2391C49.0657 17.8426 48.305 18.3025 47.433 18.6204C46.561 18.9383 45.6004 19.0964 44.5544 19.0964C43.2536 19.0964 42.0835 18.8705 41.0455 18.4171C40.0059 17.9652 39.1307 17.3407 38.4167 16.5468C37.7027 15.7529 37.1563 14.8202 36.7743 13.7487C36.3923 12.6773 36.2037 11.5219 36.2037 10.2826C36.2037 9.01263 36.3939 7.83304 36.7743 6.74544C37.1547 5.65783 37.7027 4.70899 38.4167 3.89893C39.1307 3.08888 40.0059 2.45471 41.0455 1.9932C42.0835 1.53331 43.2536 1.30255 44.5544 1.30255C45.4908 1.30255 46.3741 1.4381 47.2073 1.70758C48.0406 1.97706 48.7853 2.3708 49.4445 2.88717C50.1021 3.40354 50.6453 4.04255 51.074 4.8042C51.5027 5.56585 51.7719 6.44045 51.8831 7.42479H48.2663C48.2002 6.99394 48.0584 6.60182 47.8359 6.24359Z" fill="#426BD4"/>
<path d="M54.4071 6.74385C54.7875 5.65624 55.3355 4.70741 56.0496 3.89735C56.7636 3.08729 57.6388 2.45312 58.6784 1.99161C59.7163 1.53172 60.8865 1.30096 62.1872 1.30096C63.504 1.30096 64.6774 1.53172 65.7089 1.99161C66.7405 2.45312 67.6125 3.08729 68.3265 3.89735C69.0405 4.70741 69.5869 5.65624 69.9689 6.74385C70.3493 7.83146 70.5394 9.01105 70.5394 10.281C70.5394 11.5203 70.3493 12.6757 69.9689 13.7471C69.5885 14.8186 69.0405 15.7513 68.3265 16.5452C67.6125 17.3392 66.7405 17.962 65.7089 18.4155C64.6774 18.8673 63.504 19.0948 62.1872 19.0948C60.8865 19.0948 59.7163 18.8689 58.6784 18.4155C57.6388 17.9636 56.7636 17.3392 56.0496 16.5452C55.3355 15.7513 54.7891 14.8186 54.4071 13.7471C54.0252 12.6757 53.8366 11.5203 53.8366 10.281C53.8366 9.01105 54.0268 7.83146 54.4071 6.74385ZM57.8209 12.3659C57.9869 13.0404 58.2529 13.6487 58.6187 14.1877C58.983 14.7283 59.4585 15.1607 60.0468 15.4867C60.6334 15.8126 61.3475 15.9756 62.1888 15.9756C63.0286 15.9756 63.7426 15.8126 64.3309 15.4867C64.9176 15.1607 65.393 14.7283 65.7589 14.1877C66.1232 13.6487 66.3891 13.0404 66.5551 12.3659C66.7211 11.6913 66.805 10.9959 66.805 10.281C66.805 9.53549 66.7211 8.81257 66.5551 8.11385C66.3891 7.41513 66.1232 6.79226 65.7589 6.24361C65.393 5.69497 64.9176 5.25928 64.3309 4.93332C63.7442 4.60736 63.0302 4.44438 62.1888 4.44438C61.3475 4.44438 60.6334 4.60736 60.0468 4.93332C59.4601 5.25928 58.9846 5.69497 58.6187 6.24361C58.2529 6.79226 57.9885 7.41513 57.8209 8.11385C57.6549 8.81257 57.5711 9.53549 57.5711 10.281C57.5711 10.9959 57.6549 11.6913 57.8209 12.3659Z" fill="#426BD4"/>
<path d="M80.9564 1.70599L87.3084 18.714H83.4305L82.1459 14.9267H75.7939L74.4609 18.714H70.7023L77.1268 1.70599H80.9564V1.70599ZM81.1708 12.1399L79.0287 5.89829H78.9804L76.769 12.1399H81.1708Z" fill="#426BD4"/>
<path d="M91.6585 13.6083L95.3705 13.5454V12.5046H93.9924V12.887H91.9986V6.38719H95.3721V5.58036H91.2153V3.8602H95.3721V3.1163C94.3115 3.15826 93.2719 3.17923 92.3806 3.17923C92.2533 3.17923 92.2323 3.13728 92.1904 3.03078C92.0421 2.49988 91.2363 1.39614 91.2363 1.39614C91.831 1.43809 92.5934 1.45907 93.4218 1.45907C95.8605 1.45907 98.8729 1.24607 99.7642 0.84265C99.7642 0.84265 100.655 2.01094 100.889 2.49988C100.931 2.58541 100.954 2.64834 100.954 2.71288C100.954 2.81939 100.868 2.86134 100.763 2.86134C100.615 2.86134 100.423 2.79841 100.212 2.62736C99.5127 2.77582 98.536 2.88232 97.4755 2.96784V3.8602H101.569V4.92199H103.5C103.5 3.41483 103.5 1.26866 103.415 0.632874C103.415 0.632874 105.323 0.674829 106.087 0.781331C106.384 0.823286 106.532 0.929787 106.532 1.03629C106.532 1.16377 106.319 1.31223 105.937 1.37677C105.937 2.16263 105.937 3.73433 105.916 4.9236H109.904C109.883 8.06702 109.989 14.2248 109.288 16.8583C108.758 18.8334 107.401 19.5337 105.683 19.5337C104.622 19.5337 104.58 19.4482 104.558 19.3207C104.472 18.7688 103.858 17.5796 103.518 16.9631C102.288 19.0657 100.781 20.0001 100.654 20.0001C100.633 20.0001 100.589 20.0001 100.568 19.9791C100.059 19.6176 97.8752 19.0238 97.8752 19.0238C98.723 18.5994 99.445 18.0685 100.061 17.4731C98.1943 17.8555 94.9272 18.4074 92.2339 18.6623C92.2339 18.6833 92.2339 18.7043 92.2339 18.7043C92.2339 19.0012 92.1276 19.2142 91.9793 19.2142C91.8939 19.2142 91.7891 19.1287 91.7037 18.9383C91.4071 18.2799 91.0251 16.6872 91.0251 16.6872C92.4258 16.6452 93.9521 16.5178 95.3737 16.3693V15.222L91.6618 15.264V13.6083H91.6585ZM95.4124 8.78832V7.8524H93.9908V8.78671H95.4124V8.78832ZM95.4124 11.0813V10.0615H93.9908V11.0813H95.4124ZM98.9341 8.78832V7.8524H97.4287V8.78671H98.9341V8.78832ZM98.9341 11.0813V10.0615H97.4287V11.0813H98.9341ZM97.4706 16.1144C99.1678 15.8804 100.483 15.6464 100.907 15.5415C100.907 15.5415 100.801 16.1999 100.738 16.7518C103.093 13.9052 103.368 9.97759 103.454 7.11012H101.395V5.58036H97.4706V6.38719H100.886V12.8225H98.9341V12.5046H97.4706V13.5244L100.928 13.4599L100.949 15.1381L97.4706 15.18V16.1144V16.1144ZM105.849 7.11012C105.721 9.87109 105.36 13.6503 103.686 16.6872C104.28 16.8566 104.959 17.0906 105.552 17.0906C107.312 17.0906 107.419 15.1155 107.525 7.11012H105.849V7.11012Z" fill="#426BD4"/>
<path d="M115.332 9.10624C114.485 10.3601 113.762 11.2718 113.677 11.2718C113.656 11.2718 113.613 11.2508 113.571 11.2072C112.934 10.6344 111.343 9.99698 111.343 9.99698C114.207 7.49096 116.285 2.86136 116.922 0.52478C119.36 1.16218 119.849 1.41714 119.849 1.65112C119.849 1.79957 119.636 1.92705 119.339 1.92705C119.275 1.92705 119.212 1.90608 119.149 1.90608C118.767 2.92591 118.151 4.26364 117.389 5.70787C117.665 5.70787 117.877 5.72884 117.919 5.72884C118.259 5.7708 118.408 5.8773 118.408 5.9838C118.408 6.15324 118.153 6.32428 117.75 6.45176L117.729 9.27567C119.936 6.79063 121.314 3.20185 121.908 0.547372C121.908 0.547372 123.817 0.908832 124.56 1.14281C124.793 1.22834 124.921 1.33323 124.921 1.43973C124.921 1.60916 124.708 1.73664 124.328 1.73664C124.286 1.73664 124.263 1.73664 124.221 1.73664C124.073 2.14006 123.797 2.94689 123.436 3.92477L131.349 3.90379V6.19681H125.026V8.32039H130.541V10.636H125.026V12.8661H130.541V15.1591H125.026V19.9162H122.65L122.692 6.19681H122.502C120.932 9.74364 119.723 10.8264 119.702 10.8264C119.681 10.8264 119.66 10.8264 119.616 10.8054C119.193 10.5085 118.28 10.168 117.729 9.97762L117.644 19.9597H115.205L115.332 9.10624Z" fill="#426BD4"/>
<path d="M135.017 7.81056H142.887C142.887 6.98275 142.866 5.92096 142.866 5.43202V5.41105C140.894 5.60146 139.048 5.66601 137.564 5.68698C137.436 5.68698 137.372 5.68698 137.33 5.58048C137.012 4.83658 135.675 3.05349 135.675 3.05349C136.397 3.09544 137.203 3.11803 138.008 3.11803C141.658 3.11803 146.006 2.69364 148.699 1.71576C148.699 1.71576 149.887 3.13901 150.459 4.07332C150.545 4.2008 150.587 4.3073 150.587 4.39121C150.587 4.53967 150.48 4.60422 150.332 4.60422C150.163 4.60422 149.908 4.49771 149.654 4.3073C148.338 4.62519 146.96 4.88015 145.602 5.07218C145.602 5.98551 145.602 7.02632 145.622 7.81218H152.389V10.4247H145.602C145.326 14.6089 143.057 17.7507 138.113 19.132C138.071 19.153 138.028 19.153 138.007 19.153C137.921 19.153 137.88 19.111 137.817 19.0465C137.074 18.1332 135.251 16.8164 135.251 16.8164C141.169 15.8611 142.547 13.2067 142.823 10.4247H135.017V7.81056V7.81056Z" fill="#426BD4"/>
<path d="M154.937 15.987H160.664V10.2746H156.039V8.06549H167.728V10.2746H163.083V15.987H168.832V18.28H154.939V15.987H154.937Z" fill="#426BD4"/>
<path d="M174.517 7.55554C175.302 8.68188 176.235 10.5069 176.659 12.0157L174.644 12.929C174.602 12.95 174.559 12.95 174.517 12.95C174.452 12.95 174.41 12.9081 174.369 12.7596C173.987 11.1459 173.202 9.63717 172.375 8.4479L174.517 7.55554ZM182.577 6.76969C182.577 6.76969 184.529 7.0666 185.271 7.2796C185.546 7.36513 185.653 7.47002 185.653 7.57652C185.653 7.74595 185.419 7.917 185.058 7.97993C184.018 14.3942 181.154 17.5151 176.34 19.7032C176.298 19.7242 176.254 19.7242 176.233 19.7242C176.169 19.7242 176.127 19.7032 176.106 19.6612C175.618 19.0029 173.964 18.004 173.751 17.8765C179.289 16.2629 182.153 12.7596 182.577 6.76969ZM178.569 6.53571C179.333 7.76693 180.097 9.57262 180.456 11.1443C178.377 11.9512 178.377 11.9512 178.314 11.9512C178.272 11.9721 178.25 11.9721 178.208 11.9721C178.145 11.9721 178.122 11.9302 178.101 11.8027C177.805 10.1245 177.168 8.59635 176.383 7.23604L178.569 6.53571Z" fill="#426BD4"/>
<path d="M189.431 5.15598L195.222 5.135C195.349 3.92475 195.391 2.608 195.412 1.18475C195.412 1.18475 197.619 1.27028 198.424 1.39776C198.764 1.43971 198.913 1.56719 198.913 1.69467C198.913 1.84313 198.658 2.01256 198.255 2.11906C198.213 3.18085 198.128 4.17971 198.021 5.135L204.151 5.11402C204.003 15.5415 202.878 18.8334 197.999 18.8334C196.387 18.8334 196.239 18.6849 196.195 18.5155C196.005 17.4957 194.88 15.5205 194.88 15.5205C195.792 15.7109 196.938 16.0305 197.955 16.0305C199.016 16.0305 199.97 15.69 200.417 14.5233C201.116 12.7176 201.287 9.59678 201.329 7.64263H197.638C196.556 13.1856 194.181 16.329 190.68 19.0044C190.638 19.0464 190.594 19.069 190.552 19.069C190.511 19.069 190.467 19.048 190.404 18.9835C189.577 18.2396 187.688 17.3262 187.646 17.3052C192.058 14.7573 194.031 11.7833 194.859 7.66361C193.12 7.66361 191.337 7.66361 189.429 7.68459V5.15598H189.431Z" fill="#426BD4"/>
<path d="M208.309 8.78839H224.771V11.5913H208.309V8.78839Z" fill="#426BD4"/>
</g>
<defs>
<clipPath id="clip0">
<rect width="225" height="20" fill="white"/>
</clipPath>
</defs>
</svg>
